
<svg width="200" height="51" viewBox="0 0 200 51" fill="none" xmlns="http://www.w3.org/2000/svg">
    <path d="M54.9443 48.233L53.4893 43.681H54.6713L55.5333 46.665L56.3263 43.681H57.5003L58.2673 46.665L59.1463 43.681H60.3463L58.8693 48.233H57.7003L56.9083 45.306L56.1283 48.233H54.9443Z" fill="white"/>
    <path d="M64.828 48.233L63.373 43.681H64.556L65.418 46.665L66.2111 43.681H67.388L68.1551 46.665L69.0341 43.681H70.2341L68.757 48.233H67.5881L66.7961 45.306L66.0171 48.233H64.828Z" fill="white"/>
    <path d="M74.7118 48.233L73.2568 43.681H74.4398L75.3018 46.665L76.0948 43.681H77.2688L78.0358 46.665L78.9148 43.681H80.1148L78.6378 48.233H77.4688L76.6768 45.306L75.8968 48.233H74.7118Z" fill="white"/>
    <path d="M83.7393 48.234V47.034H84.9563V48.234H83.7393Z" fill="white"/>
    <path d="M91.8493 46.785L93.0623 46.985C92.9307 47.3892 92.6718 47.7401 92.3243 47.985C91.9485 48.2264 91.5077 48.3468 91.0613 48.33C90.7245 48.3556 90.3866 48.2983 90.0771 48.163C89.7677 48.0278 89.4961 47.8186 89.2863 47.554C88.9691 47.0942 88.8095 46.5441 88.8313 45.986C88.7941 45.3396 89.0092 44.704 89.4313 44.213C89.6229 44.0044 89.857 43.8393 90.1178 43.7289C90.3786 43.6185 90.6601 43.5653 90.9433 43.573C91.2461 43.5583 91.5484 43.6109 91.8285 43.7269C92.1085 43.8429 92.3595 44.0195 92.5633 44.244C93.0021 44.8342 93.2043 45.5672 93.1303 46.299H90.0823C90.0714 46.6041 90.1765 46.9021 90.3763 47.133C90.465 47.2298 90.5733 47.3066 90.694 47.3584C90.8147 47.4101 90.945 47.4355 91.0763 47.433C91.2496 47.4388 91.4196 47.3844 91.5573 47.279C91.7033 47.1484 91.8053 46.9758 91.8493 46.785ZM91.9183 45.568C91.9319 45.2764 91.8343 44.9904 91.6453 44.768C91.5615 44.6806 91.4608 44.6113 91.3492 44.5644C91.2376 44.5175 91.1176 44.494 90.9965 44.4954C90.8755 44.4968 90.756 44.5231 90.6455 44.5726C90.5351 44.622 90.4359 44.6936 90.3543 44.783C90.1725 45.0007 90.0812 45.2799 90.0993 45.563L91.9183 45.568Z" fill="white"/>
    <path d="M101.116 45.028L99.9159 45.242C99.8917 45.0361 99.7941 44.8458 99.6409 44.706C99.483 44.5809 99.2852 44.517 99.0839 44.526C98.9476 44.5202 98.8117 44.545 98.6862 44.5986C98.5607 44.6523 98.4489 44.7334 98.3589 44.836C98.1499 45.1404 98.054 45.5083 98.0879 45.876C98.051 46.2772 98.1477 46.6794 98.3629 47.02C98.4518 47.1291 98.5648 47.2161 98.6931 47.2741C98.8213 47.3321 98.9613 47.3594 99.1019 47.354C99.3094 47.3612 99.5119 47.2898 99.6689 47.154C99.8429 46.9702 99.9521 46.7346 99.9799 46.483L101.18 46.683C101.093 47.1638 100.84 47.599 100.466 47.913C100.055 48.2087 99.5555 48.3555 99.0499 48.329C98.7526 48.3431 98.4556 48.2943 98.1784 48.1859C97.9012 48.0775 97.6499 47.912 97.4409 47.7C97.0514 47.1998 96.8398 46.584 96.8398 45.95C96.8398 45.316 97.0514 44.7002 97.4409 44.2C97.6533 43.9873 97.9079 43.8216 98.1884 43.7134C98.4688 43.6053 98.7687 43.5571 99.0689 43.572C99.5411 43.5472 100.009 43.6721 100.406 43.929C100.76 44.2046 101.01 44.592 101.116 45.028Z" fill="white"/>
    <path d="M104.743 45.895C104.744 45.4887 104.847 45.0892 105.043 44.733C105.232 44.3683 105.527 44.0693 105.89 43.875C106.266 43.674 106.686 43.5708 107.113 43.575C107.582 43.5813 108.04 43.7248 108.429 43.9879C108.818 44.251 109.121 44.6222 109.302 45.0556C109.483 45.4891 109.533 45.966 109.446 46.4275C109.359 46.889 109.139 47.315 108.813 47.653C108.592 47.8765 108.327 48.0522 108.036 48.169C107.744 48.2858 107.432 48.3413 107.118 48.332C106.699 48.3328 106.286 48.2359 105.912 48.049C105.54 47.8716 105.235 47.5815 105.039 47.22C104.83 46.8103 104.728 46.3545 104.743 45.895ZM105.99 45.959C105.964 46.3331 106.08 46.7031 106.315 46.996C106.415 47.1092 106.538 47.1998 106.676 47.2618C106.814 47.3239 106.963 47.3559 107.115 47.3559C107.266 47.3559 107.415 47.3239 107.553 47.2618C107.691 47.1998 107.814 47.1092 107.915 46.996C108.148 46.6999 108.263 46.3274 108.238 45.951C108.262 45.5797 108.147 45.2127 107.915 44.922C107.814 44.8088 107.691 44.7182 107.553 44.6562C107.415 44.5941 107.266 44.562 107.115 44.562C106.963 44.562 106.814 44.5941 106.676 44.6562C106.538 44.7182 106.415 44.8088 106.315 44.922C106.081 45.2146 105.965 45.5852 105.99 45.959Z" fill="white"/>
    <path d="M112.997 46.935L114.219 46.751C114.256 46.9611 114.369 47.1505 114.535 47.284C114.731 47.4164 114.966 47.4804 115.202 47.466C115.451 47.4834 115.699 47.4237 115.912 47.295C115.963 47.2586 116.004 47.2103 116.032 47.1544C116.06 47.0984 116.074 47.0365 116.072 46.974C116.073 46.9321 116.066 46.8904 116.051 46.8513C116.036 46.8122 116.014 46.7764 115.985 46.746C115.863 46.6633 115.724 46.6093 115.578 46.588C114.93 46.4852 114.301 46.2874 113.711 46.001C113.539 45.8924 113.398 45.7408 113.303 45.5612C113.207 45.3817 113.16 45.1803 113.166 44.977C113.164 44.7862 113.205 44.5974 113.287 44.425C113.369 44.2526 113.489 44.1011 113.638 43.982C114.064 43.6807 114.582 43.5391 115.102 43.582C115.588 43.5479 116.073 43.6519 116.502 43.882C116.815 44.095 117.04 44.415 117.134 44.782L115.987 44.992C115.947 44.827 115.847 44.6823 115.708 44.585C115.531 44.4804 115.326 44.4313 115.121 44.444C114.884 44.4259 114.646 44.4718 114.433 44.577C114.391 44.602 114.355 44.6376 114.331 44.6805C114.307 44.7233 114.294 44.7717 114.294 44.821C114.295 44.8646 114.306 44.9075 114.327 44.9457C114.348 44.9839 114.378 45.0163 114.415 45.04C114.778 45.2018 115.16 45.3157 115.552 45.379C116.038 45.4576 116.501 45.6401 116.91 45.914C117.038 46.025 117.139 46.1638 117.205 46.3198C117.271 46.4758 117.3 46.6449 117.291 46.814C117.29 47.0216 117.242 47.2264 117.151 47.4128C117.06 47.5992 116.927 47.7624 116.763 47.89C116.312 48.2206 115.758 48.3801 115.2 48.34C114.677 48.3679 114.158 48.2364 113.712 47.963C113.354 47.721 113.099 47.3546 112.997 46.935Z" fill="white"/>
    <path d="M121.064 45.895C121.066 45.4887 121.169 45.0893 121.364 44.733C121.554 44.3684 121.849 44.0694 122.211 43.875C122.587 43.674 123.008 43.5708 123.434 43.575C123.904 43.5817 124.361 43.7255 124.749 43.9887C125.138 44.2518 125.442 44.6229 125.622 45.0562C125.803 45.4895 125.853 45.9662 125.766 46.4275C125.679 46.8889 125.46 47.3148 125.134 47.653C124.913 47.8771 124.648 48.0531 124.355 48.1699C124.062 48.2868 123.749 48.3419 123.434 48.332C123.016 48.3328 122.603 48.2359 122.228 48.049C121.857 47.8716 121.551 47.5815 121.355 47.22C121.149 46.8097 121.048 46.3541 121.064 45.895ZM122.311 45.959C122.286 46.3331 122.402 46.7031 122.636 46.996C122.736 47.1092 122.86 47.1998 122.997 47.2618C123.135 47.3239 123.285 47.3559 123.436 47.3559C123.587 47.3559 123.737 47.3239 123.875 47.2618C124.013 47.1998 124.136 47.1092 124.236 46.996C124.47 46.7 124.585 46.3274 124.559 45.951C124.584 45.5797 124.469 45.2126 124.236 44.922C124.136 44.8088 124.013 44.7182 123.875 44.6562C123.737 44.5941 123.587 44.562 123.436 44.562C123.285 44.562 123.135 44.5941 122.997 44.6562C122.86 44.7182 122.736 44.8088 122.636 44.922C122.402 45.2146 122.286 45.5852 122.311 45.959Z" fill="white"/>
    <path d="M132.774 48.233V47.551C132.606 47.795 132.379 47.9927 132.114 48.126C131.847 48.2648 131.551 48.3368 131.25 48.336C130.961 48.3412 130.675 48.2723 130.419 48.136C130.184 48.0117 129.996 47.8126 129.886 47.57C129.762 47.2492 129.706 46.9064 129.721 46.563V43.683H130.938V45.773C130.92 46.1666 130.943 46.561 131.005 46.95C131.046 47.0886 131.132 47.2094 131.25 47.293C131.383 47.3817 131.541 47.4261 131.701 47.42C131.9 47.4224 132.095 47.363 132.259 47.25C132.414 47.1497 132.532 47.0025 132.597 46.83C132.68 46.4262 132.71 46.0135 132.688 45.602V43.681H133.905V48.233H132.774Z" fill="white"/>
    <path d="M139.316 48.233H138.099V43.681H139.229V44.329C139.36 44.0954 139.537 43.8911 139.751 43.729C139.909 43.6312 140.092 43.5809 140.278 43.584C140.56 43.5858 140.836 43.6643 141.078 43.811L140.701 44.861C140.533 44.7411 140.334 44.6717 140.129 44.661C139.973 44.6563 139.82 44.7054 139.696 44.8C139.553 44.9339 139.456 45.1086 139.417 45.3C139.328 45.8035 139.295 46.3152 139.317 46.826L139.316 48.233Z" fill="white"/>
    <path d="M148.597 45.028L147.397 45.242C147.373 45.036 147.276 44.8456 147.122 44.706C146.964 44.5809 146.767 44.517 146.565 44.526C146.429 44.5201 146.293 44.545 146.168 44.5986C146.042 44.6523 145.93 44.7334 145.84 44.836C145.631 45.1404 145.536 45.5083 145.569 45.876C145.532 46.2772 145.629 46.6794 145.844 47.02C145.933 47.1291 146.046 47.2161 146.175 47.2741C146.303 47.3321 146.443 47.3594 146.583 47.354C146.791 47.3612 146.993 47.2898 147.15 47.154C147.324 46.9702 147.434 46.7346 147.461 46.483L148.661 46.683C148.574 47.164 148.321 47.5992 147.946 47.913C147.535 48.2087 147.036 48.3555 146.53 48.329C146.233 48.3431 145.936 48.2943 145.659 48.1859C145.382 48.0775 145.13 47.912 144.921 47.7C144.532 47.1998 144.32 46.584 144.32 45.95C144.32 45.316 144.532 44.7002 144.921 44.2C145.134 43.9872 145.389 43.8214 145.669 43.7132C145.95 43.605 146.25 43.5569 146.55 43.572C147.022 43.5473 147.49 43.6723 147.886 43.929C148.241 44.2044 148.491 44.5918 148.597 45.028Z" fill="white"/>
    <path d="M152.505 43.064V41.95H153.722V43.064H152.505ZM152.505 48.233V43.681H153.722V48.23L152.505 48.233Z" fill="white"/>
    <path d="M162.138 48.233H160.921V45.91C160.939 45.59 160.912 45.269 160.843 44.956C160.797 44.8197 160.709 44.7018 160.59 44.62C160.465 44.5378 160.318 44.4959 160.168 44.5C159.966 44.4975 159.768 44.5576 159.601 44.672C159.438 44.7798 159.316 44.9399 159.256 45.126C159.178 45.4685 159.147 45.8201 159.163 46.171V48.233H157.946V43.681H159.076V44.35C159.328 44.0093 159.686 43.7624 160.094 43.6486C160.502 43.5348 160.937 43.5607 161.328 43.722C161.523 43.8 161.695 43.9263 161.828 44.089C161.943 44.2388 162.024 44.4113 162.067 44.595C162.119 44.8618 162.141 45.1334 162.134 45.405L162.138 48.233Z" fill="white"/>
    <path d="M166.244 48.534L167.634 48.701C167.637 48.7639 167.653 48.8255 167.681 48.8822C167.708 48.9389 167.747 48.9895 167.794 49.031C167.958 49.1291 168.149 49.1739 168.34 49.159C168.587 49.1744 168.833 49.1254 169.055 49.017C169.167 48.9473 169.253 48.8415 169.297 48.717C169.344 48.5366 169.363 48.3501 169.353 48.164V47.495C169.202 47.7219 168.997 47.908 168.757 48.0366C168.517 48.1652 168.249 48.2323 167.976 48.232C167.685 48.2391 167.398 48.1715 167.141 48.0359C166.884 47.9002 166.666 47.7009 166.508 47.457C166.213 47.0042 166.065 46.4712 166.084 45.931C166.041 45.2984 166.24 44.673 166.641 44.182C166.815 43.9878 167.028 43.8336 167.267 43.73C167.506 43.6264 167.765 43.5759 168.025 43.582C168.302 43.5805 168.576 43.6473 168.821 43.7766C169.067 43.9058 169.276 44.0935 169.432 44.323V43.684H170.571V47.769C170.587 48.1735 170.541 48.5781 170.436 48.969C170.364 49.2056 170.235 49.4207 170.06 49.595C169.873 49.7602 169.652 49.8818 169.412 49.951C169.079 50.0447 168.734 50.0879 168.388 50.079C167.806 50.1302 167.224 49.9897 166.729 49.679C166.575 49.5614 166.45 49.4092 166.365 49.2346C166.28 49.0601 166.237 48.8681 166.24 48.674C166.24 48.639 166.242 48.595 166.244 48.534ZM167.331 45.864C167.3 46.2397 167.4 46.6146 167.614 46.925C167.697 47.0307 167.804 47.116 167.925 47.1743C168.046 47.2325 168.179 47.2622 168.314 47.261C168.457 47.2625 168.599 47.2324 168.729 47.1727C168.859 47.1131 168.975 47.0254 169.067 46.916C169.292 46.6249 169.402 46.261 169.375 45.894C169.404 45.5202 169.3 45.1481 169.081 44.844C168.991 44.7342 168.877 44.6463 168.747 44.5869C168.618 44.5275 168.477 44.4982 168.335 44.501C168.197 44.498 168.06 44.5268 167.935 44.585C167.81 44.6433 167.7 44.7295 167.614 44.837C167.403 45.1356 167.303 45.4995 167.331 45.864Z" fill="white"/>
    <path d="M174.76 48.234V47.034H175.977V48.234H174.76Z" fill="white"/>
    <path d="M179.927 45.895C179.929 45.4887 180.032 45.0893 180.227 44.733C180.417 44.3683 180.712 44.0693 181.074 43.875C181.45 43.674 181.871 43.5708 182.297 43.575C182.767 43.5813 183.224 43.7248 183.613 43.9879C184.002 44.251 184.306 44.6222 184.486 45.0556C184.667 45.4891 184.717 45.966 184.63 46.4275C184.543 46.889 184.323 47.315 183.997 47.653C183.776 47.8765 183.512 48.0522 183.22 48.169C182.929 48.2858 182.616 48.3413 182.302 48.332C181.884 48.3328 181.471 48.2359 181.096 48.049C180.725 47.8716 180.419 47.5815 180.223 47.22C180.015 46.8102 179.913 46.3545 179.927 45.895ZM181.174 45.959C181.149 46.3328 181.265 46.7024 181.499 46.995C181.599 47.1082 181.723 47.1988 181.86 47.2608C181.998 47.3228 182.148 47.3549 182.299 47.3549C182.45 47.3549 182.6 47.3228 182.738 47.2608C182.876 47.1988 182.999 47.1082 183.099 46.995C183.333 46.699 183.448 46.3264 183.422 45.95C183.447 45.5787 183.332 45.2116 183.099 44.921C182.999 44.8078 182.876 44.7172 182.738 44.6552C182.6 44.5931 182.45 44.5611 182.299 44.5611C182.148 44.5611 181.998 44.5931 181.86 44.6552C181.723 44.7172 181.599 44.8078 181.499 44.921C181.265 45.2139 181.149 45.5848 181.174 45.959Z" fill="white"/>
    <path d="M189.778 48.233H188.561V43.681H189.691V44.329C189.821 44.0953 189.999 43.891 190.213 43.729C190.37 43.6312 190.553 43.5809 190.739 43.584C191.021 43.5858 191.297 43.6643 191.539 43.811L191.163 44.861C190.995 44.7412 190.796 44.6718 190.591 44.661C190.435 44.6564 190.282 44.7055 190.158 44.8C190.015 44.934 189.918 45.1086 189.879 45.3C189.79 45.8036 189.757 46.3152 189.779 46.826L189.778 48.233Z" fill="white"/>
    <path d="M194.936 48.534L196.326 48.701C196.329 48.7639 196.345 48.8256 196.373 48.8823C196.4 48.939 196.439 48.9896 196.486 49.031C196.651 49.1291 196.842 49.1739 197.032 49.159C197.279 49.1743 197.525 49.1254 197.746 49.017C197.859 48.9476 197.945 48.8417 197.989 48.717C198.036 48.5366 198.055 48.3501 198.045 48.164V47.495C197.895 47.7219 197.69 47.908 197.45 48.0366C197.209 48.1652 196.941 48.2323 196.668 48.232C196.378 48.2391 196.09 48.1715 195.833 48.0359C195.576 47.9002 195.358 47.7009 195.2 47.457C194.905 47.0043 194.757 46.4712 194.776 45.931C194.733 45.2984 194.932 44.6729 195.333 44.182C195.507 43.9878 195.721 43.8336 195.96 43.73C196.198 43.6264 196.457 43.5759 196.717 43.582C196.995 43.5805 197.268 43.6473 197.514 43.7766C197.759 43.9058 197.969 44.0935 198.124 44.323V43.684H199.263V47.769C199.279 48.1735 199.233 48.5781 199.128 48.969C199.057 49.2054 198.927 49.4205 198.752 49.595C198.565 49.7602 198.344 49.8818 198.104 49.951C197.772 50.0447 197.427 50.0879 197.081 50.079C196.5 50.1302 195.917 49.9897 195.422 49.679C195.268 49.5615 195.143 49.4093 195.058 49.2348C194.973 49.0602 194.93 48.8681 194.933 48.674C194.932 48.639 194.933 48.595 194.936 48.534ZM196.023 45.864C195.992 46.2397 196.092 46.6147 196.306 46.925C196.39 47.0308 196.496 47.1161 196.617 47.1744C196.739 47.2326 196.872 47.2622 197.006 47.261C197.15 47.2625 197.291 47.2324 197.421 47.1727C197.552 47.1131 197.667 47.0254 197.759 46.916C197.984 46.6247 198.093 46.2608 198.066 45.894C198.096 45.5202 197.992 45.1481 197.772 44.844C197.682 44.7342 197.568 44.6463 197.439 44.5869C197.31 44.5275 197.169 44.4982 197.026 44.501C196.889 44.498 196.752 44.5268 196.627 44.585C196.502 44.6433 196.392 44.7295 196.305 44.837C196.096 45.136 195.997 45.4988 196.025 45.863L196.023 45.864Z" fill="white"/>
    <path d="M37.2171 12.014L32.2271 7.19901L17.5761 22.377L12.9321 22.459L29.9551 4.81799L24.9651 0L-0.00488281 25.871L25.0761 50.081L29.8931 45.091L13.4381 29.204L18.1481 29.122L32.2101 42.694L37.9101 36.784L25.1771 24.491L37.2171 12.014Z" fill="white"/>
    <path d="M39.8127 14.582L30.1787 24.564L40.1607 34.195L49.7917 24.214L39.8127 14.582ZM40.0357 27.099L37.2757 24.434L39.9377 21.678L42.6957 24.339L40.0357 27.099Z" fill="white"/>
    <path d="M199.263 38.852H53.4893V39.374H199.263V38.852Z" fill="#FDFDFD"/>
    <path d="M60.8954 34.208C60.897 34.34 60.89 34.4719 60.8744 34.603C60.8657 34.691 60.8452 34.7774 60.8134 34.86C60.7937 34.9159 60.7591 34.9653 60.7134 35.003C60.6749 35.0323 60.6278 35.0481 60.5794 35.048H55.2794C55.114 35.0525 54.9527 34.9959 54.8264 34.889C54.7603 34.821 54.7098 34.7394 54.6782 34.65C54.6466 34.5606 54.6347 34.4654 54.6434 34.371V25.171C54.6347 25.0766 54.6465 24.9813 54.6781 24.8919C54.7097 24.8025 54.7603 24.721 54.8264 24.653C54.9527 24.5461 55.114 24.4895 55.2794 24.494H60.5484C60.5954 24.4932 60.6413 24.5076 60.6794 24.535C60.7254 24.5724 60.7601 24.6219 60.7794 24.678C60.8108 24.7621 60.8316 24.8498 60.8414 24.939C60.8561 25.0718 60.8627 25.2054 60.8614 25.339C60.8626 25.4683 60.856 25.5975 60.8414 25.726C60.8319 25.814 60.8111 25.9004 60.7794 25.983C60.7586 26.0383 60.7242 26.0875 60.6794 26.126C60.6422 26.1556 60.596 26.1715 60.5484 26.171H56.7804V28.748H59.9624C60.0111 28.7482 60.0584 28.764 60.0974 28.793C60.142 28.8301 60.1765 28.8779 60.1974 28.932C60.2294 29.0128 60.2502 29.0976 60.2594 29.184C60.2739 29.3128 60.2806 29.4424 60.2794 29.572C60.2809 29.7029 60.2742 29.8339 60.2594 29.964C60.25 30.0491 60.2291 30.1325 60.1974 30.212C60.1772 30.2654 60.1426 30.3121 60.0974 30.347C60.0575 30.3739 60.0105 30.3882 59.9624 30.388H56.7734V33.365H60.5734C60.6217 33.3645 60.6688 33.38 60.7074 33.409C60.7529 33.4469 60.7874 33.4963 60.8074 33.552C60.839 33.6346 60.8595 33.721 60.8684 33.809C60.8861 33.9413 60.8951 34.0745 60.8954 34.208Z" fill="white"/>
    <path d="M69.8433 33.449C69.8433 33.5823 69.8393 33.698 69.8313 33.796C69.8248 33.8784 69.8125 33.9603 69.7943 34.041C69.7808 34.102 69.7589 34.1609 69.7293 34.216C69.6924 34.2766 69.6484 34.3327 69.5983 34.383C69.4935 34.4776 69.3768 34.5582 69.2513 34.623C69.0502 34.7343 68.8402 34.8287 68.6233 34.905C68.0193 35.1167 67.3834 35.2229 66.7433 35.219C66.0757 35.2289 65.412 35.1156 64.7853 34.885C64.2193 34.6723 63.711 34.3298 63.3013 33.885C62.8724 33.4063 62.5524 32.8403 62.3633 32.226C62.1332 31.4757 62.0232 30.6937 62.0373 29.909C62.0239 29.098 62.1452 28.2903 62.3963 27.519C62.6064 26.8722 62.9467 26.2752 63.3963 25.765C63.8231 25.2938 64.3514 24.9259 64.9413 24.689C65.5735 24.4385 66.2484 24.3139 66.9283 24.322C67.2126 24.3214 67.4964 24.3462 67.7763 24.396C68.0321 24.4407 68.2841 24.5045 68.5303 24.587C68.7461 24.6595 68.9549 24.7512 69.1543 24.861C69.294 24.9327 69.424 25.0217 69.5413 25.126C69.5994 25.1806 69.6501 25.2424 69.6923 25.31C69.7232 25.3691 69.7451 25.4325 69.7573 25.498C69.7753 25.5868 69.7877 25.6767 69.7943 25.767C69.8013 25.867 69.8063 25.999 69.8063 26.151C69.8063 26.303 69.8013 26.451 69.7903 26.567C69.7837 26.6614 69.7646 26.7546 69.7333 26.844C69.7129 26.9029 69.6786 26.9561 69.6333 26.999C69.5973 27.0303 69.5511 27.0477 69.5033 27.048C69.3877 27.0336 69.2794 26.9836 69.1933 26.905C69.0377 26.7899 68.8754 26.684 68.7073 26.588C68.4822 26.4584 68.2447 26.3515 67.9983 26.269C67.6808 26.1677 67.3486 26.1197 67.0153 26.127C66.6319 26.1174 66.2521 26.2028 65.9097 26.3758C65.5673 26.5487 65.2731 26.8037 65.0533 27.118C64.8084 27.4669 64.63 27.8582 64.5273 28.272C64.2835 29.3037 64.288 30.3784 64.5403 31.408C64.6446 31.8149 64.83 32.1965 65.0853 32.53C65.3128 32.8161 65.6076 33.0415 65.9433 33.186C66.3008 33.3349 66.6852 33.4084 67.0723 33.402C67.4064 33.4089 67.7394 33.3633 68.0593 33.267C68.3063 33.1899 68.5454 33.0894 68.7733 32.967C68.9733 32.8577 69.1367 32.7597 69.2633 32.673C69.3496 32.6032 69.4534 32.5582 69.5633 32.543C69.609 32.5411 69.6541 32.5525 69.6933 32.576C69.7343 32.6095 69.7631 32.6555 69.7753 32.707C69.8011 32.796 69.8176 32.8875 69.8243 32.98C69.8383 33.097 69.8433 33.253 69.8433 33.449Z" fill="white"/>
    <path d="M80.7561 29.649C80.7675 30.444 80.6576 31.2362 80.4301 31.998C80.2358 32.6467 79.9046 33.2461 79.4591 33.756C79.0213 34.2425 78.4753 34.6193 77.8651 34.856C77.1625 35.1208 76.4159 35.2495 75.6651 35.235C74.9354 35.2492 74.2085 35.14 73.5151 34.912C72.932 34.7163 72.4067 34.3789 71.9861 33.93C71.5553 33.4479 71.2412 32.873 71.0681 32.25C70.851 31.4642 70.7483 30.6511 70.7631 29.836C70.753 29.0571 70.863 28.2814 71.0891 27.536C71.2847 26.8927 71.6158 26.2987 72.0601 25.794C72.4998 25.3092 73.0457 24.9327 73.6551 24.694C74.3589 24.4254 75.1079 24.295 75.8611 24.31C76.5796 24.2975 77.2951 24.405 77.9781 24.628C78.5625 24.8227 79.0895 25.159 79.5121 25.607C79.9439 26.0858 80.2619 26.656 80.4421 27.275C80.665 28.0462 80.7708 28.8464 80.7561 29.649ZM78.5051 29.763C78.5094 29.2557 78.4659 28.7491 78.3751 28.25C78.3038 27.836 78.1531 27.4397 77.9311 27.083C77.7246 26.7627 77.4359 26.5037 77.0951 26.333C76.6869 26.1436 76.2399 26.0528 75.7901 26.068C75.3314 26.053 74.8764 26.1563 74.4691 26.368C74.1225 26.5608 73.8283 26.8354 73.6121 27.168C73.3855 27.5222 73.2294 27.9167 73.1521 28.33C73.06 28.7933 73.0148 29.2647 73.0171 29.737C73.0123 30.2579 73.0558 30.7782 73.1471 31.291C73.2181 31.7081 73.3678 32.1079 73.5881 32.469C73.7902 32.7909 74.0784 33.0497 74.4201 33.216C74.8327 33.3998 75.2817 33.4874 75.7331 33.472C76.1912 33.4881 76.6458 33.3872 77.0541 33.179C77.4024 32.9885 77.6971 32.7133 77.9111 32.379C78.1374 32.0184 78.2938 31.6185 78.3721 31.2C78.4653 30.7267 78.5115 30.2454 78.5101 29.763H78.5051Z" fill="white"/>
    <path d="M92.5912 31.885C92.6022 32.3891 92.4961 32.8888 92.2812 33.345C92.0836 33.753 91.7965 34.1113 91.4412 34.393C91.0722 34.6814 90.6513 34.8963 90.2013 35.026C89.7086 35.1702 89.1976 35.2417 88.6843 35.238C88.3438 35.2401 88.004 35.2099 87.6692 35.148C87.3883 35.0962 87.1115 35.0236 86.8412 34.931C86.6335 34.8613 86.4327 34.7726 86.2412 34.666C86.1164 34.5987 86.0002 34.5164 85.8953 34.421C85.8172 34.3353 85.7652 34.2292 85.7452 34.115C85.71 33.9255 85.695 33.7327 85.7002 33.54C85.7002 33.371 85.7053 33.23 85.7163 33.116C85.7238 33.022 85.7415 32.9291 85.7692 32.839C85.787 32.7802 85.8218 32.728 85.8693 32.689C85.9107 32.6586 85.9609 32.6428 86.0122 32.644C86.1293 32.6602 86.2403 32.7063 86.3343 32.778C86.5066 32.8877 86.6849 32.9879 86.8682 33.078C87.119 33.1998 87.3796 33.3002 87.6472 33.378C87.9885 33.4721 88.3413 33.5172 88.6952 33.512C88.9319 33.5154 89.1678 33.4837 89.3953 33.418C89.5861 33.3638 89.765 33.2739 89.9223 33.153C90.0646 33.0401 90.1778 32.8947 90.2522 32.729C90.3303 32.5517 90.3692 32.3597 90.3663 32.166C90.371 31.9443 90.3005 31.7275 90.1663 31.551C90.0253 31.3694 89.8529 31.2147 89.6572 31.094C89.4293 30.9508 89.1906 30.8254 88.9433 30.719C88.6766 30.6017 88.4019 30.4777 88.1193 30.347C87.8358 30.2159 87.5606 30.0677 87.2952 29.903C87.0305 29.7372 86.7902 29.5352 86.5813 29.303C86.3655 29.0611 86.1933 28.7837 86.0723 28.483C85.9318 28.1218 85.8638 27.7365 85.8722 27.349C85.8627 26.889 85.9588 26.433 86.1533 26.016C86.3314 25.6448 86.5908 25.3183 86.9123 25.061C87.2469 24.8004 87.6295 24.608 88.0383 24.495C88.4851 24.3676 88.9477 24.3043 89.4123 24.307C89.6633 24.3073 89.914 24.3264 90.1623 24.364C90.3989 24.3994 90.6328 24.4512 90.8623 24.519C91.0607 24.5771 91.2543 24.6507 91.4412 24.739C91.5615 24.7895 91.674 24.8568 91.7753 24.939C91.819 24.9795 91.8564 25.0264 91.8863 25.078C91.9083 25.1263 91.9248 25.1769 91.9353 25.229C91.9504 25.3069 91.9597 25.3857 91.9632 25.465C91.9682 25.565 91.9712 25.679 91.9712 25.82C91.9712 25.978 91.9712 26.111 91.9582 26.22C91.9534 26.3107 91.94 26.4008 91.9183 26.489C91.9057 26.547 91.8777 26.6006 91.8372 26.644C91.7978 26.6784 91.7465 26.696 91.6942 26.693C91.5914 26.6774 91.4936 26.6384 91.4083 26.579C91.2783 26.503 91.1172 26.42 90.9272 26.33C90.7132 26.2322 90.4923 26.1504 90.2663 26.085C89.9982 26.0095 89.7207 25.9725 89.4423 25.975C89.235 25.9707 89.0283 25.9998 88.8303 26.061C88.6706 26.1093 88.5223 26.1892 88.3942 26.296C88.2789 26.3939 88.1893 26.5185 88.1333 26.659C88.0753 26.8015 88.0461 26.9541 88.0473 27.108C88.0421 27.3259 88.1092 27.5393 88.2382 27.715C88.3794 27.8986 88.5541 28.0537 88.7533 28.172C88.9867 28.3154 89.2307 28.4408 89.4832 28.547C89.7552 28.6643 90.0326 28.7883 90.3152 28.919C90.6008 29.051 90.8786 29.1992 91.1472 29.363C91.4165 29.5276 91.6609 29.7296 91.8733 29.963C92.0909 30.2026 92.2649 30.4784 92.3873 30.778C92.528 31.1298 92.5973 31.5061 92.5912 31.885Z" fill="white"/>
    <path d="M101.467 31.059C101.473 31.6349 101.391 32.2084 101.222 32.759C101.071 33.2471 100.818 33.6975 100.48 34.08C100.136 34.4588 99.7085 34.7522 99.2315 34.937C98.6714 35.1481 98.076 35.25 97.4775 35.237C96.9033 35.2491 96.3316 35.1579 95.7896 34.968C95.336 34.8053 94.9277 34.5369 94.5985 34.185C94.2723 33.8223 94.0329 33.39 93.8986 32.921C93.7384 32.3644 93.6612 31.7871 93.6696 31.208C93.663 30.6318 93.747 30.0581 93.9186 29.508C94.0696 29.0193 94.324 28.5687 94.6646 28.187C95.0081 27.8107 95.4338 27.5188 95.9085 27.334C96.4669 27.1228 97.0607 27.0209 97.6575 27.034C98.2354 27.0214 98.8109 27.1111 99.3575 27.299C99.8103 27.4591 100.218 27.7264 100.545 28.078C100.87 28.4413 101.109 28.8734 101.245 29.342C101.402 29.9003 101.477 30.4789 101.467 31.059ZM99.3535 31.141C99.3556 30.8088 99.3272 30.477 99.2686 30.15C99.2194 29.8725 99.1212 29.606 98.9785 29.363C98.8472 29.1442 98.6602 28.9641 98.4366 28.841C98.1729 28.7067 97.8793 28.642 97.5836 28.653C97.3075 28.6466 97.0337 28.7041 96.7835 28.821C96.556 28.9314 96.3617 29.1001 96.2206 29.31C96.0644 29.5458 95.9526 29.8081 95.8905 30.084C95.8129 30.4224 95.776 30.7689 95.7806 31.116C95.7781 31.4485 95.8083 31.7804 95.8705 32.107C95.921 32.3843 96.0187 32.6509 96.1595 32.895C96.2891 33.1144 96.4771 33.2934 96.7025 33.412C96.9656 33.5427 97.257 33.6059 97.5505 33.596C97.8289 33.6027 98.105 33.5452 98.3575 33.428C98.5843 33.3182 98.7784 33.151 98.9205 32.943C99.0769 32.7089 99.1876 32.4473 99.2466 32.172C99.3214 31.8335 99.3573 31.4876 99.3535 31.141Z" fill="white"/>
    <path d="M109.989 34.771C109.99 34.8214 109.976 34.871 109.948 34.913C109.911 34.9599 109.861 34.9947 109.804 35.013C109.718 35.0449 109.628 35.0654 109.536 35.074C109.396 35.0896 109.256 35.0966 109.115 35.095C108.969 35.0968 108.823 35.0898 108.678 35.074C108.587 35.0657 108.498 35.0451 108.413 35.013C108.358 34.9939 108.31 34.9591 108.274 34.913C108.246 34.8709 108.232 34.8214 108.233 34.771V33.931C107.883 34.3248 107.468 34.6559 107.006 34.91C106.608 35.1227 106.164 35.2346 105.713 35.236C105.28 35.2496 104.849 35.1659 104.452 34.991C104.127 34.8392 103.844 34.6094 103.629 34.322C103.414 34.0281 103.262 33.6937 103.18 33.339C103.082 32.882 103.037 32.4152 103.046 31.948V27.494C103.045 27.443 103.06 27.393 103.091 27.352C103.134 27.3029 103.191 27.268 103.254 27.252C103.357 27.2197 103.464 27.1992 103.572 27.191C103.902 27.1636 104.233 27.1636 104.563 27.191C104.67 27.1994 104.775 27.2199 104.877 27.252C104.941 27.2691 104.999 27.3037 105.044 27.352C105.077 27.392 105.094 27.4424 105.093 27.494V31.605C105.085 31.8979 105.11 32.1907 105.167 32.478C105.209 32.6631 105.285 32.8388 105.392 32.996C105.49 33.1377 105.621 33.2525 105.775 33.33C105.944 33.412 106.13 33.4524 106.318 33.448C106.604 33.4395 106.88 33.3397 107.106 33.163C107.421 32.9221 107.705 32.6426 107.95 32.331V27.494C107.949 27.4431 107.964 27.3933 107.994 27.352C108.037 27.3034 108.094 27.2686 108.157 27.252C108.259 27.22 108.364 27.1996 108.471 27.191C108.804 27.1633 109.138 27.1633 109.471 27.191C109.576 27.1992 109.68 27.2197 109.781 27.252C109.843 27.2698 109.9 27.3044 109.944 27.352C109.976 27.3921 109.994 27.4424 109.993 27.494L109.989 34.771Z" fill="white"/>
    <path d="M116.727 28.172C116.727 28.372 116.722 28.528 116.711 28.653C116.704 28.7524 116.688 28.8508 116.662 28.947C116.649 29.0035 116.619 29.0547 116.576 29.094C116.537 29.1226 116.489 29.137 116.441 29.135C116.391 29.1337 116.341 29.1239 116.294 29.106C116.24 29.087 116.178 29.067 116.11 29.045C116.042 29.023 115.967 29.003 115.886 28.984C115.798 28.9638 115.707 28.9541 115.617 28.955C115.5 28.9558 115.383 28.9792 115.275 29.024C115.147 29.0792 115.027 29.1522 114.92 29.241C114.779 29.3579 114.651 29.4889 114.537 29.632C114.383 29.8235 114.24 30.0238 114.109 30.232V34.767C114.11 34.8186 114.092 34.8689 114.06 34.909C114.014 34.9574 113.956 34.992 113.892 35.009C113.79 35.0411 113.685 35.0616 113.578 35.07C113.245 35.0983 112.911 35.0983 112.578 35.07C112.471 35.0616 112.366 35.0411 112.264 35.009C112.2 34.992 112.142 34.9574 112.096 34.909C112.063 34.8689 112.046 34.8186 112.047 34.767V27.491C112.046 27.4406 112.06 27.391 112.088 27.349C112.126 27.3016 112.177 27.2667 112.235 27.249C112.323 27.2175 112.415 27.197 112.508 27.188C112.647 27.1724 112.788 27.1654 112.928 27.167C113.072 27.1654 113.217 27.1724 113.36 27.188C113.451 27.1955 113.54 27.2161 113.625 27.249C113.679 27.2688 113.725 27.3035 113.76 27.349C113.788 27.391 113.802 27.4406 113.801 27.491V28.396C113.963 28.159 114.143 27.9344 114.339 27.724C114.484 27.567 114.645 27.4259 114.82 27.303C114.959 27.2055 115.113 27.1325 115.277 27.087C115.426 27.046 115.58 27.0251 115.734 27.025C115.81 27.0251 115.886 27.0294 115.962 27.038C116.047 27.0463 116.131 27.0596 116.215 27.078C116.293 27.0949 116.369 27.1166 116.444 27.143C116.496 27.1604 116.544 27.1868 116.587 27.221C116.615 27.246 116.637 27.2767 116.652 27.311C116.668 27.3547 116.68 27.3999 116.688 27.446C116.702 27.5306 116.711 27.6162 116.713 27.702C116.724 27.821 116.727 27.976 116.727 28.172Z" fill="white"/>
    <path d="M123.261 33.613C123.261 33.755 123.261 33.873 123.248 33.968C123.242 34.049 123.232 34.1295 123.216 34.209C123.206 34.2641 123.189 34.3177 123.167 34.369C123.134 34.4271 123.091 34.4792 123.041 34.523C122.938 34.6122 122.826 34.6891 122.706 34.752C122.534 34.8486 122.354 34.9293 122.168 34.993C121.954 35.0666 121.734 35.1237 121.512 35.164C121.271 35.2077 121.027 35.2295 120.782 35.229C120.274 35.2384 119.768 35.1498 119.294 34.968C118.874 34.803 118.5 34.5384 118.205 34.197C117.899 33.8337 117.672 33.4103 117.54 32.954C117.383 32.4081 117.307 31.842 117.316 31.274C117.302 30.6337 117.394 29.9956 117.588 29.385C117.746 28.8969 118.006 28.448 118.351 28.068C118.672 27.7236 119.068 27.4583 119.509 27.293C119.979 27.1203 120.476 27.0345 120.977 27.04C121.191 27.0398 121.406 27.0589 121.617 27.097C121.816 27.1323 122.013 27.1841 122.204 27.252C122.373 27.3111 122.537 27.3847 122.694 27.472C122.804 27.5295 122.907 27.6007 123 27.684C123.047 27.7293 123.09 27.7796 123.127 27.834C123.154 27.884 123.173 27.9381 123.183 27.994C123.199 28.0735 123.21 28.154 123.216 28.235C123.225 28.335 123.228 28.446 123.228 28.581C123.24 28.8057 123.213 29.0309 123.147 29.246C123.092 29.3733 123.021 29.437 122.935 29.437C122.827 29.4315 122.725 29.3915 122.642 29.323C122.542 29.247 122.416 29.163 122.275 29.07C122.115 28.9684 121.946 28.8836 121.769 28.817C121.544 28.7361 121.307 28.6974 121.069 28.703C120.829 28.6922 120.591 28.7432 120.376 28.851C120.162 28.9589 119.979 29.12 119.845 29.319C119.527 29.8659 119.38 30.4949 119.421 31.126C119.416 31.4743 119.452 31.8219 119.527 32.162C119.584 32.4295 119.691 32.6841 119.841 32.913C119.972 33.107 120.152 33.2629 120.363 33.365C120.592 33.4699 120.841 33.5215 121.093 33.516C121.342 33.5219 121.59 33.4791 121.823 33.39C122.01 33.314 122.189 33.2195 122.357 33.108C122.509 33.0047 122.636 32.9107 122.74 32.826C122.811 32.7568 122.902 32.7125 123.001 32.7C123.045 32.6984 123.088 32.713 123.123 32.741C123.163 32.7822 123.19 32.8344 123.2 32.891C123.222 32.9837 123.237 33.078 123.245 33.173C123.256 33.287 123.261 33.434 123.261 33.613Z" fill="white"/>
    <path d="M126.957 25.032C126.974 25.1845 126.96 25.3389 126.917 25.486C126.873 25.6332 126.801 25.7702 126.704 25.889C126.416 26.043 126.095 26.1242 125.769 26.1256C125.443 26.127 125.121 26.0485 124.832 25.897C124.739 25.7824 124.67 25.6506 124.629 25.5091C124.587 25.3677 124.575 25.2195 124.591 25.073C124.558 24.7645 124.647 24.4553 124.84 24.212C125.127 24.0558 125.448 23.9735 125.775 23.9722C126.102 23.971 126.424 24.051 126.712 24.205C126.805 24.3198 126.875 24.452 126.917 24.5939C126.959 24.7359 126.973 24.8848 126.957 25.032ZM126.802 34.771C126.803 34.8227 126.785 34.8729 126.753 34.913C126.707 34.9614 126.649 34.996 126.585 35.013C126.483 35.0452 126.377 35.0656 126.271 35.074C125.938 35.1023 125.604 35.1023 125.271 35.074C125.164 35.0656 125.059 35.0451 124.957 35.013C124.893 34.996 124.834 34.9614 124.789 34.913C124.756 34.8729 124.739 34.8227 124.74 34.771V27.512C124.739 27.4604 124.756 27.4102 124.789 27.37C124.834 27.3201 124.892 27.2832 124.957 27.263C125.059 27.2282 125.164 27.205 125.271 27.194C125.603 27.1613 125.938 27.1613 126.271 27.194C126.378 27.2049 126.483 27.2281 126.585 27.263C126.649 27.2832 126.707 27.3201 126.753 27.37C126.785 27.4102 126.803 27.4604 126.802 27.512V34.771Z" fill="white"/>
    <path d="M135.798 34.771C135.799 34.8226 135.781 34.8729 135.749 34.913C135.705 34.9606 135.648 34.9952 135.586 35.013C135.484 35.0456 135.378 35.066 135.272 35.074C135.108 35.0894 134.943 35.0965 134.779 35.095C134.612 35.0965 134.445 35.0895 134.279 35.074C134.172 35.066 134.067 35.0456 133.965 35.013C133.902 34.9953 133.846 34.9607 133.802 34.913C133.769 34.8729 133.752 34.8226 133.753 34.771V30.619C133.76 30.3395 133.734 30.0602 133.675 29.787C133.631 29.6027 133.555 29.4274 133.451 29.269C133.355 29.1266 133.224 29.0116 133.071 28.935C132.902 28.8524 132.716 28.8115 132.529 28.816C132.241 28.8252 131.965 28.9253 131.738 29.102C131.424 29.3398 131.144 29.6197 130.906 29.934V34.771C130.907 34.8226 130.889 34.873 130.857 34.913C130.812 34.9613 130.754 34.9959 130.69 35.013C130.588 35.0451 130.482 35.0656 130.376 35.074C130.043 35.1023 129.708 35.1023 129.376 35.074C129.269 35.0656 129.164 35.0451 129.062 35.013C128.998 34.9959 128.94 34.9613 128.895 34.913C128.862 34.873 128.845 34.8226 128.846 34.771V27.495C128.845 27.4446 128.859 27.395 128.887 27.353C128.925 27.3056 128.976 27.2707 129.034 27.253C129.122 27.2215 129.214 27.201 129.308 27.192C129.447 27.1764 129.587 27.1694 129.728 27.171C129.872 27.1694 130.016 27.1764 130.16 27.192C130.251 27.1997 130.34 27.2202 130.425 27.253C130.478 27.2728 130.525 27.3075 130.56 27.353C130.588 27.395 130.602 27.4446 130.601 27.495V28.335C130.951 27.9411 131.366 27.61 131.828 27.356C132.228 27.1429 132.674 27.031 133.128 27.03C133.558 27.0172 133.986 27.1009 134.38 27.275C134.705 27.4256 134.987 27.654 135.203 27.94C135.419 28.2331 135.573 28.5673 135.656 28.922C135.756 29.3662 135.803 29.8207 135.795 30.276L135.798 34.771Z" fill="white"/>
    <path d="M144.369 28.001C144.38 28.1982 144.35 28.3955 144.279 28.58C144.219 28.705 144.145 28.767 144.059 28.767H143.203C143.321 28.8945 143.409 29.0465 143.46 29.212C143.512 29.3798 143.538 29.5545 143.537 29.73C143.544 30.1172 143.472 30.5017 143.325 30.86C143.19 31.1806 142.981 31.4653 142.717 31.692C142.438 31.9265 142.114 32.1011 141.764 32.205C141.361 32.3268 140.942 32.3862 140.52 32.381C140.295 32.3821 140.07 32.3535 139.851 32.296C139.679 32.2554 139.513 32.1879 139.361 32.096C139.292 32.1723 139.233 32.2574 139.186 32.349C139.134 32.4496 139.107 32.5616 139.108 32.675C139.108 32.7519 139.126 32.8278 139.163 32.8956C139.199 32.9634 139.252 33.021 139.316 33.063C139.49 33.1739 139.693 33.2319 139.899 33.23L141.669 33.295C142.044 33.3052 142.416 33.3643 142.775 33.471C143.072 33.5576 143.349 33.7017 143.59 33.895C143.807 34.0724 143.98 34.2967 144.096 34.551C144.217 34.8261 144.276 35.1238 144.271 35.424C144.273 35.7765 144.192 36.1244 144.035 36.44C143.868 36.7682 143.625 37.0517 143.326 37.267C142.967 37.5217 142.565 37.7096 142.139 37.822C141.595 37.9649 141.034 38.0322 140.471 38.022C139.939 38.0304 139.406 37.9811 138.884 37.875C138.505 37.7997 138.141 37.6618 137.807 37.467C137.558 37.3246 137.353 37.1175 137.212 36.8677C137.071 36.6179 137 36.3347 137.007 36.048C137.007 35.8743 137.03 35.7014 137.076 35.534C137.122 35.3695 137.189 35.2118 137.276 35.065C137.37 34.9101 137.48 34.7666 137.606 34.637C137.745 34.4943 137.895 34.3632 138.054 34.245C137.83 34.1284 137.642 33.9519 137.511 33.735C137.384 33.5221 137.318 33.2782 137.319 33.03C137.316 32.7236 137.392 32.4215 137.539 32.153C137.689 31.8858 137.882 31.6449 138.11 31.44C137.916 31.243 137.76 31.0105 137.653 30.755C137.529 30.4366 137.471 30.0965 137.482 29.755C137.476 29.3641 137.552 28.9762 137.706 28.617C137.849 28.2916 138.062 28.002 138.33 27.769C138.61 27.5305 138.934 27.35 139.284 27.238C139.68 27.1124 140.093 27.0506 140.507 27.055C140.727 27.0544 140.946 27.0681 141.163 27.096C141.36 27.1207 141.555 27.1588 141.747 27.21H144.055C144.148 27.21 144.223 27.27 144.279 27.389C144.352 27.5845 144.382 27.793 144.369 28.001ZM142.216 35.53C142.221 35.4187 142.196 35.308 142.145 35.2092C142.093 35.1104 142.016 35.0269 141.922 34.967C141.678 34.8234 141.399 34.75 141.115 34.755L139.655 34.714C139.532 34.8015 139.419 34.9021 139.317 35.014C139.243 35.0988 139.176 35.1902 139.117 35.287C139.07 35.3652 139.036 35.4507 139.017 35.54C139.001 35.6233 138.993 35.7081 138.993 35.793C138.993 35.9256 139.032 36.0552 139.105 36.1656C139.178 36.276 139.283 36.3621 139.405 36.413C139.771 36.5723 140.168 36.6449 140.566 36.625C140.83 36.6308 141.094 36.5991 141.349 36.531C141.535 36.4814 141.709 36.3969 141.863 36.282C141.984 36.192 142.079 36.073 142.14 35.936C142.193 35.8072 142.219 35.6691 142.216 35.53ZM141.735 29.722C141.746 29.5556 141.722 29.3887 141.666 29.2316C141.61 29.0745 141.523 28.9304 141.409 28.808C141.286 28.6944 141.14 28.6069 140.982 28.5509C140.823 28.4949 140.655 28.4714 140.487 28.482C140.306 28.4779 140.125 28.512 139.957 28.582C139.812 28.6451 139.683 28.7397 139.578 28.859C139.477 28.9783 139.4 29.1172 139.354 29.267C139.305 29.424 139.28 29.5875 139.28 29.752C139.272 29.9127 139.296 30.0735 139.352 30.2243C139.408 30.3752 139.495 30.5129 139.606 30.629C139.728 30.7405 139.871 30.8265 140.026 30.8818C140.182 30.9371 140.347 30.9606 140.511 30.951C140.696 30.9546 140.879 30.9206 141.049 30.851C141.194 30.7911 141.324 30.6991 141.428 30.582C141.53 30.4668 141.608 30.3326 141.657 30.187C141.71 30.0376 141.738 29.8805 141.739 29.722H141.735Z" fill="white"/>
    <path d="M155.43 34.151C155.431 34.2886 155.424 34.4262 155.409 34.563C155.399 34.6577 155.379 34.751 155.348 34.841C155.329 34.9018 155.294 34.9566 155.248 35C155.207 35.0325 155.157 35.0499 155.105 35.049H150.268C150.102 35.0535 149.941 34.9969 149.815 34.89C149.749 34.8221 149.698 34.7405 149.666 34.6511C149.635 34.5617 149.623 34.4664 149.632 34.372V24.788C149.632 24.7343 149.651 24.6823 149.685 24.641C149.732 24.5899 149.793 24.5532 149.861 24.535C149.968 24.5027 150.079 24.4809 150.191 24.47C150.537 24.4378 150.885 24.4378 151.231 24.47C151.341 24.481 151.45 24.5028 151.557 24.535C151.624 24.5531 151.685 24.5898 151.733 24.641C151.767 24.6822 151.786 24.7343 151.786 24.788V33.279H155.106C155.157 33.2776 155.207 33.2934 155.249 33.324C155.295 33.3626 155.33 33.4136 155.349 33.471C155.381 33.5573 155.401 33.6474 155.41 33.739C155.425 33.8758 155.431 34.0134 155.43 34.151Z" fill="white"/>
    <path d="M158.785 25.032C158.802 25.1845 158.788 25.3389 158.745 25.4861C158.702 25.6332 158.629 25.7703 158.532 25.889C158.244 26.0428 157.924 26.1239 157.597 26.1253C157.271 26.1267 156.95 26.0483 156.661 25.897C156.568 25.7824 156.499 25.6506 156.458 25.5091C156.417 25.3677 156.404 25.2195 156.42 25.073C156.387 24.7646 156.476 24.4555 156.668 24.212C156.955 24.0558 157.276 23.9735 157.603 23.9722C157.93 23.971 158.252 24.051 158.54 24.205C158.633 24.3198 158.703 24.452 158.745 24.5939C158.787 24.7359 158.801 24.8848 158.785 25.032ZM158.63 34.771C158.631 34.8227 158.613 34.8729 158.581 34.913C158.535 34.9614 158.477 34.996 158.413 35.013C158.311 35.0451 158.206 35.0656 158.099 35.074C157.766 35.1023 157.432 35.1023 157.099 35.074C156.992 35.0656 156.887 35.0452 156.785 35.013C156.721 34.9961 156.662 34.9615 156.617 34.913C156.584 34.8729 156.567 34.8227 156.568 34.771V27.512C156.567 27.4604 156.584 27.4102 156.617 27.37C156.662 27.32 156.72 27.283 156.785 27.263C156.887 27.2281 156.992 27.205 157.099 27.194C157.431 27.1613 157.766 27.1613 158.099 27.194C158.206 27.205 158.311 27.2282 158.413 27.263C158.477 27.2832 158.535 27.3201 158.581 27.37C158.613 27.4102 158.631 27.4604 158.63 27.512V34.771Z" fill="white"/>
    <path d="M172.248 34.771C172.249 34.8226 172.232 34.8729 172.199 34.913C172.155 34.9606 172.099 34.9952 172.036 35.013C171.936 35.0454 171.831 35.0658 171.726 35.074C171.56 35.0897 171.393 35.0967 171.226 35.095C171.057 35.0968 170.888 35.0897 170.72 35.074C170.613 35.0654 170.508 35.045 170.406 35.013C170.343 34.9964 170.286 34.9616 170.243 34.913C170.213 34.8717 170.198 34.8219 170.199 34.771V30.456C170.202 30.2311 170.178 30.0067 170.13 29.787C170.091 29.603 170.019 29.4275 169.918 29.269C169.828 29.1296 169.705 29.0148 169.559 28.935C169.4 28.8519 169.222 28.8109 169.042 28.816C168.77 28.8263 168.509 28.9269 168.3 29.102C167.997 29.3464 167.723 29.6256 167.485 29.934V34.771C167.486 34.8226 167.469 34.8729 167.436 34.913C167.391 34.9613 167.333 34.9959 167.269 35.013C167.167 35.045 167.062 35.0655 166.955 35.074C166.793 35.0895 166.629 35.0966 166.466 35.095C166.299 35.0967 166.132 35.0897 165.966 35.074C165.859 35.0656 165.754 35.0451 165.652 35.013C165.588 34.9961 165.53 34.9614 165.484 34.913C165.452 34.8729 165.434 34.8226 165.435 34.771V30.456C165.438 30.2311 165.414 30.0067 165.366 29.787C165.327 29.6037 165.257 29.4285 165.158 29.269C165.069 29.1285 164.946 29.0134 164.799 28.935C164.641 28.8527 164.464 28.8118 164.285 28.816C164.01 28.8251 163.746 28.9258 163.535 29.102C163.233 29.3453 162.961 29.6247 162.727 29.934V34.771C162.728 34.8226 162.711 34.8729 162.678 34.913C162.633 34.9615 162.574 34.9962 162.51 35.013C162.408 35.0452 162.303 35.0656 162.196 35.074C161.863 35.1023 161.529 35.1023 161.196 35.074C161.089 35.0656 160.984 35.0451 160.882 35.013C160.818 34.9959 160.76 34.9613 160.714 34.913C160.682 34.8729 160.664 34.8226 160.665 34.771V27.495C160.664 27.4446 160.678 27.395 160.706 27.353C160.744 27.3056 160.795 27.2707 160.853 27.253C160.941 27.2215 161.033 27.201 161.126 27.192C161.266 27.1765 161.406 27.1694 161.546 27.171C161.69 27.1694 161.835 27.1764 161.978 27.192C162.069 27.1996 162.158 27.2201 162.243 27.253C162.297 27.2728 162.344 27.3075 162.378 27.353C162.406 27.395 162.42 27.4446 162.419 27.495V28.335C162.763 27.9458 163.169 27.6151 163.619 27.356C164.002 27.1429 164.433 27.0307 164.871 27.03C165.143 27.0266 165.414 27.0582 165.678 27.124C165.904 27.1805 166.12 27.2708 166.318 27.392C166.502 27.5053 166.666 27.6475 166.804 27.813C166.942 27.9794 167.057 28.1634 167.146 28.36C167.345 28.1452 167.559 27.9447 167.786 27.76C167.979 27.6033 168.187 27.4653 168.406 27.348C168.601 27.2463 168.806 27.1674 169.019 27.113C169.223 27.061 169.432 27.0348 169.642 27.035C170.063 27.0219 170.482 27.1057 170.866 27.28C171.184 27.4323 171.458 27.6607 171.666 27.945C171.877 28.2389 172.026 28.5732 172.103 28.927C172.192 29.3177 172.236 29.7173 172.234 30.118L172.248 34.771Z" fill="white"/>
    <path d="M176.472 25.032C176.489 25.1845 176.476 25.3389 176.432 25.486C176.389 25.6332 176.317 25.7702 176.219 25.889C175.932 26.043 175.611 26.1242 175.284 26.1256C174.958 26.127 174.636 26.0485 174.347 25.897C174.255 25.7824 174.186 25.6506 174.144 25.5091C174.103 25.3677 174.09 25.2195 174.106 25.073C174.073 24.7645 174.163 24.4553 174.355 24.212C174.642 24.0558 174.964 23.9735 175.291 23.9722C175.617 23.971 175.939 24.051 176.227 24.205C176.321 24.3198 176.391 24.452 176.433 24.5939C176.475 24.7359 176.488 24.8848 176.472 25.032ZM176.317 34.771C176.318 34.8227 176.301 34.8729 176.268 34.913C176.223 34.9614 176.165 34.996 176.1 35.013C175.998 35.0452 175.893 35.0656 175.786 35.074C175.454 35.1023 175.119 35.1023 174.786 35.074C174.68 35.0656 174.574 35.0451 174.472 35.013C174.408 34.996 174.35 34.9614 174.304 34.913C174.272 34.8729 174.255 34.8227 174.255 34.771V27.512C174.255 27.4604 174.272 27.4102 174.304 27.37C174.35 27.3201 174.408 27.2832 174.472 27.263C174.574 27.2281 174.679 27.205 174.786 27.194C175.119 27.1613 175.454 27.1613 175.786 27.194C175.893 27.2049 175.999 27.2281 176.1 27.263C176.165 27.2832 176.223 27.3201 176.268 27.37C176.301 27.4102 176.318 27.4604 176.317 27.512V34.771Z" fill="white"/>
    <path d="M182.673 34.053C182.678 34.2374 182.663 34.4218 182.629 34.603C182.612 34.7014 182.571 34.7942 182.51 34.873C182.448 34.9331 182.375 34.98 182.294 35.011C182.186 35.0563 182.074 35.0921 181.96 35.118C181.823 35.1492 181.683 35.1722 181.543 35.187C181.393 35.2036 181.242 35.2119 181.091 35.212C180.732 35.219 180.373 35.1667 180.031 35.057C179.747 34.9632 179.492 34.7991 179.289 34.58C179.084 34.3466 178.936 34.0685 178.857 33.768C178.758 33.3901 178.711 33.0005 178.718 32.61V28.883H177.845C177.742 28.883 177.663 28.819 177.608 28.691C177.543 28.4843 177.515 28.2675 177.527 28.051C177.526 27.9174 177.532 27.7838 177.547 27.651C177.556 27.5629 177.576 27.4765 177.608 27.394C177.628 27.341 177.663 27.2946 177.708 27.26C177.751 27.2322 177.801 27.2179 177.852 27.219H178.716V25.596C178.715 25.5434 178.731 25.492 178.761 25.449C178.803 25.3963 178.86 25.3576 178.924 25.338C179.027 25.3035 179.133 25.2816 179.241 25.273C179.374 25.2596 179.539 25.253 179.735 25.253C179.935 25.253 180.104 25.26 180.235 25.273C180.342 25.2813 180.448 25.3031 180.549 25.338C180.613 25.3594 180.669 25.3978 180.712 25.449C180.744 25.4912 180.761 25.5429 180.761 25.596V27.219H182.344C182.394 27.2178 182.444 27.2321 182.486 27.26C182.531 27.2943 182.566 27.3407 182.586 27.394C182.618 27.4764 182.639 27.5629 182.647 27.651C182.662 27.7838 182.669 27.9174 182.668 28.051C182.68 28.2675 182.652 28.4843 182.587 28.691C182.532 28.8183 182.453 28.8823 182.35 28.883H180.76V32.3C180.74 32.6095 180.804 32.9186 180.947 33.194C181.022 33.2986 181.124 33.3815 181.241 33.4342C181.359 33.4869 181.488 33.5075 181.616 33.494C181.715 33.495 181.813 33.4853 181.91 33.465C181.989 33.449 182.066 33.4273 182.142 33.4C182.21 33.376 182.267 33.354 182.314 33.335C182.354 33.3176 182.397 33.3081 182.44 33.307C182.473 33.3072 182.505 33.3169 182.533 33.335C182.569 33.3633 182.594 33.4038 182.603 33.449C182.623 33.5256 182.638 33.6034 182.647 33.682C182.664 33.8049 182.673 33.9289 182.673 34.053Z" fill="white"/>
    <path d="M190.674 30.921C190.691 31.1206 190.631 31.319 190.506 31.476C190.447 31.5369 190.375 31.5845 190.296 31.6155C190.216 31.6465 190.131 31.6603 190.046 31.656H185.617C185.614 31.9411 185.651 32.2252 185.727 32.5C185.793 32.7392 185.914 32.9599 186.079 33.145C186.25 33.3272 186.463 33.4646 186.699 33.545C186.992 33.6441 187.299 33.6912 187.608 33.684C187.925 33.6876 188.242 33.6615 188.554 33.606C188.793 33.5634 189.028 33.5066 189.26 33.436C189.46 33.373 189.622 33.316 189.753 33.264C189.854 33.2196 189.961 33.1935 190.071 33.187C190.114 33.1854 190.156 33.1951 190.193 33.215C190.23 33.239 190.259 33.2739 190.275 33.315C190.3 33.3817 190.316 33.4518 190.32 33.523C190.327 33.614 190.332 33.723 190.332 33.862C190.332 33.982 190.332 34.084 190.324 34.168C190.32 34.2404 190.312 34.3125 190.299 34.384C190.291 34.4365 190.274 34.4875 190.25 34.535C190.227 34.5781 190.198 34.6179 190.164 34.653C190.077 34.7205 189.98 34.7729 189.875 34.808C189.68 34.8857 189.479 34.9498 189.275 35C188.998 35.0686 188.718 35.123 188.435 35.163C188.1 35.2105 187.762 35.2335 187.423 35.232C186.847 35.2425 186.273 35.1598 185.723 34.987C185.263 34.8404 184.845 34.586 184.503 34.245C184.164 33.8901 183.914 33.4596 183.773 32.989C183.603 32.412 183.522 31.8124 183.533 31.211C183.525 30.618 183.611 30.0275 183.786 29.461C183.936 28.9745 184.186 28.5246 184.52 28.14C184.842 27.7784 185.243 27.4955 185.691 27.313C186.185 27.1158 186.713 27.0186 187.245 27.027C187.778 27.0134 188.309 27.1048 188.807 27.296C189.215 27.4589 189.579 27.7143 189.871 28.042C190.154 28.3704 190.363 28.7558 190.483 29.172C190.619 29.6327 190.686 30.1108 190.683 30.591L190.674 30.921ZM188.684 30.334C188.727 29.855 188.604 29.3759 188.337 28.976C188.201 28.8072 188.025 28.6742 187.825 28.5884C187.626 28.5025 187.409 28.4663 187.192 28.483C186.956 28.4772 186.723 28.5276 186.51 28.63C186.322 28.7238 186.158 28.8588 186.03 29.025C185.897 29.2009 185.797 29.3999 185.736 29.612C185.667 29.8468 185.627 30.0893 185.618 30.334H188.684Z" fill="white"/>
    <path d="M199.264 34.771C199.266 34.8243 199.251 34.8769 199.223 34.922C199.187 34.9681 199.139 35.0029 199.084 35.022C198.998 35.0538 198.909 35.073 198.818 35.079C198.706 35.0897 198.569 35.095 198.407 35.095C198.233 35.095 198.092 35.089 197.983 35.079C197.892 35.0724 197.803 35.0532 197.718 35.022C197.661 35.0027 197.61 34.9681 197.571 34.922C197.54 34.878 197.524 34.8249 197.526 34.771V33.963C197.186 34.337 196.788 34.6537 196.348 34.901C195.918 35.1187 195.444 35.2331 194.963 35.235C194.481 35.2369 194.006 35.1263 193.575 34.912C193.197 34.7026 192.875 34.4048 192.637 34.044C192.385 33.6546 192.206 33.222 192.111 32.768C192 32.2629 191.945 31.7471 191.948 31.23C191.94 30.6414 192.01 30.0544 192.156 29.484C192.274 29.0098 192.48 28.5618 192.763 28.163C193.022 27.8051 193.366 27.5166 193.763 27.323C194.191 27.1201 194.66 27.0195 195.133 27.029C195.517 27.024 195.897 27.1093 196.242 27.278C196.607 27.4684 196.94 27.7147 197.229 28.008V24.069C197.228 24.0166 197.243 23.9653 197.273 23.922C197.315 23.8699 197.372 23.8317 197.436 23.812C197.537 23.7764 197.643 23.7529 197.75 23.742C198.082 23.7094 198.417 23.7094 198.75 23.742C198.856 23.7526 198.96 23.7761 199.06 23.812C199.123 23.8329 199.18 23.8709 199.223 23.922C199.255 23.9642 199.272 24.0159 199.272 24.069L199.264 34.771ZM197.225 29.91C196.982 29.5915 196.698 29.3064 196.381 29.062C196.138 28.8758 195.842 28.773 195.536 28.769C195.291 28.7626 195.05 28.8325 194.847 28.969C194.65 29.1059 194.49 29.2893 194.381 29.503C194.26 29.7386 194.173 29.9896 194.12 30.249C194.063 30.5267 194.035 30.8095 194.035 31.093C194.034 31.3908 194.059 31.6882 194.108 31.982C194.15 32.2492 194.231 32.5089 194.348 32.753C194.45 32.967 194.603 33.153 194.793 33.295C194.998 33.4354 195.244 33.5055 195.493 33.495C195.632 33.495 195.771 33.4744 195.905 33.434C196.05 33.3872 196.187 33.3198 196.313 33.234C196.467 33.1278 196.611 33.0062 196.741 32.871C196.887 32.7217 197.048 32.5383 197.222 32.321L197.225 29.91Z" fill="white"/>
</svg>
